<?xml version="1.0" standalone="no"?>
<!DOCTYPE svg PUBLIC "-//W3C//DTD SVG 20010904//EN"
 "http://www.w3.org/TR/2001/REC-SVG-20010904/DTD/svg10.dtd">
<svg version="1.0" xmlns="http://www.w3.org/2000/svg"
 width="260.000000pt" height="260.000000pt" viewBox="0 0 260.000000 260.000000"
 preserveAspectRatio="xMidYMid meet">
<metadata>
Created by potrace 1.11, written by Peter Selinger 2001-2013
</metadata>
<g transform="translate(0.000000,260.000000) scale(0.100000,-0.100000)"
fill="#000000" stroke="none">
<path d="M569 1788 c0 -150 0 -424 0 -608 1 -184 1 -401 1 -482 l0 -148 95 0
95 0 1 318 c0 174 1 373 1 442 0 69 0 266 -1 438 l-1 312 -95 0 -95 0 -1 -272z"/>
<path d="M1969 1673 c0 -203 -1 -402 -1 -443 0 -41 0 -216 1 -387 l1 -313 95
0 95 0 2 338 c0 185 1 369 1 407 -1 42 4 73 11 77 8 6 8 8 -1 8 -10 0 -13 75
-13 340 l0 340 -95 0 -95 0 -1 -367z"/>
<path d="M2465 1629 c-4 -6 -5 -12 -2 -15 2 -3 7 2 10 11 7 17 1 20 -8 4z"/>
<path d="M2510 1632 c0 -6 9 -14 20 -17 11 -3 20 -11 20 -16 0 -13 -14 -11
-29 4 -11 10 -13 10 -7 0 4 -7 2 -13 -3 -13 -6 0 -11 -5 -11 -11 0 -8 5 -8 15
1 17 14 21 0 4 -17 -9 -9 -5 -19 13 -42 14 -16 28 -28 31 -25 3 3 -7 17 -21
31 l-26 26 30 25 c18 16 24 27 16 30 -6 2 -9 9 -6 14 4 7 2 8 -5 4 -6 -4 -18
-2 -26 4 -10 8 -15 9 -15 2z"/>
<path d="M1556 1619 c2 -4 -18 -23 -46 -41 -27 -18 -50 -36 -50 -41 0 -4 5 -5
10 -2 6 3 10 0 10 -8 0 -8 7 -20 15 -27 8 -6 14 -15 13 -18 -2 -19 3 -32 13
-32 6 0 7 5 2 13 -12 19 -14 47 -3 47 6 0 10 -5 10 -12 0 -6 3 -9 6 -5 3 3 2
13 -4 23 -6 11 -11 13 -16 5 -11 -17 -23 -13 -29 9 -4 15 5 27 39 50 40 27 59
29 33 3 -11 -11 7 -53 23 -53 5 0 8 -5 8 -11 0 -6 -9 -8 -21 -4 -19 6 -20 5
-8 -8 9 -10 18 -12 26 -5 6 5 28 11 47 13 l35 3 -21 -29 c-12 -16 -19 -32 -15
-35 4 -4 10 2 14 12 14 38 50 60 38 24 -4 -12 -2 -20 5 -20 6 0 8 5 5 10 -3 6
-1 10 4 10 6 0 11 -5 11 -11 0 -6 6 -9 13 -6 8 3 20 1 27 -3 8 -5 23 -4 34 2
19 10 19 12 -13 39 -18 15 -30 32 -27 38 5 7 1 8 -10 4 -13 -5 -15 -3 -9 7 5
9 4 11 -3 6 -6 -4 -26 7 -43 23 -25 24 -35 28 -50 20 -11 -5 -19 -14 -19 -20
0 -6 -4 -8 -9 -5 -15 10 -20 -22 -5 -34 8 -7 14 -17 14 -23 0 -6 -11 0 -25 13
-13 12 -22 27 -18 33 12 20 11 54 -3 54 -7 0 -11 -4 -8 -8z m167 -81 c16 -16
32 -28 37 -28 4 0 13 -6 19 -14 9 -10 8 -15 -2 -19 -19 -7 -33 3 -51 38 -10
19 -16 24 -16 13 0 -9 5 -20 10 -23 6 -3 10 -11 10 -17 0 -6 -10 -2 -22 9 -28
25 -73 50 -64 34 4 -6 0 -11 -10 -11 -10 0 -14 3 -11 7 4 3 -2 12 -13 20 -20
14 -19 14 6 38 l25 24 27 -22 c14 -12 39 -34 55 -49z"/>
<path d="M1626 1574 c-8 -22 -8 -24 6 -24 6 0 8 3 5 7 -4 3 -2 12 4 20 7 8 8
13 1 13 -5 0 -13 -7 -16 -16z"/>
<path d="M1650 1562 c0 -5 11 -14 25 -20 15 -7 25 -8 25 -2 0 6 -7 10 -15 10
-8 0 -15 5 -15 10 0 6 -4 10 -10 10 -5 0 -10 -4 -10 -8z"/>
<path d="M1590 1618 c0 -4 4 -8 9 -8 6 0 12 4 15 8 3 5 -1 9 -9 9 -8 0 -15 -4
-15 -9z"/>
<path d="M2485 1620 c-3 -5 -1 -10 4 -10 6 0 11 5 11 10 0 6 -2 10 -4 10 -3 0
-8 -4 -11 -10z"/>
<path d="M1510 1610 c-8 -5 -12 -11 -10 -14 3 -2 14 2 24 10 22 15 10 19 -14
4z"/>
<path d="M2437 1595 c-4 -9 -3 -13 3 -10 6 3 10 1 10 -4 0 -6 -4 -11 -8 -11
-5 0 -9 -15 -9 -32 -1 -27 1 -29 7 -13 5 11 9 17 9 13 1 -9 41 29 41 39 0 3
-9 -2 -20 -12 -11 -10 -23 -16 -26 -13 -3 3 8 16 23 28 18 15 21 21 9 16 -11
-4 -22 -2 -26 4 -5 8 -9 6 -13 -5z"/>
<path d="M1475 1590 c-3 -5 -1 -10 4 -10 6 0 11 5 11 10 0 6 -2 10 -4 10 -3 0
-8 -4 -11 -10z"/>
<path d="M2562 1572 c-21 -16 -21 -19 -7 -37 15 -20 15 -20 8 0 -6 18 -5 18
10 6 10 -7 17 -9 17 -3 0 6 -6 13 -12 15 -10 4 -9 8 2 16 8 5 12 12 10 15 -3
2 -15 -3 -28 -12z"/>
<path d="M1514 1556 c-10 -8 -16 -18 -11 -22 4 -4 7 -2 7 5 0 7 4 10 9 7 5 -3
11 1 15 9 7 19 5 19 -20 1z"/>
<path d="M1426 1535 c-9 -14 -12 -25 -6 -25 5 0 10 5 10 11 0 5 4 8 9 4 6 -3
9 4 8 15 -2 25 -1 25 -21 -5z"/>
<path d="M1540 1540 c0 -5 5 -10 11 -10 5 0 7 5 4 10 -3 6 -8 10 -11 10 -2 0
-4 -4 -4 -10z"/>
<path d="M2396 1542 c-3 -5 1 -9 9 -9 8 0 15 4 15 9 0 4 -4 8 -9 8 -6 0 -12
-4 -15 -8z"/>
<path d="M2483 1543 c-7 -3 -13 -9 -13 -14 0 -4 8 -6 18 -2 13 5 12 1 -5 -16
-27 -26 -28 -34 -7 -55 8 -9 11 -16 5 -16 -6 0 -11 -4 -11 -8 0 -5 7 -9 15 -9
8 0 13 2 10 5 -2 3 7 13 20 24 28 22 30 31 12 50 -7 7 -18 20 -23 29 -5 9 -15
14 -21 12z m37 -49 c11 -12 10 -18 -3 -32 -16 -15 -18 -15 -34 0 -13 14 -14
20 -3 32 7 9 16 16 20 16 4 0 13 -7 20 -16z"/>
<path d="M2490 1480 c0 -5 5 -10 10 -10 6 0 10 5 10 10 0 6 -4 10 -10 10 -5 0
-10 -4 -10 -10z"/>
<path d="M516 1518 c3 -5 10 -6 15 -3 13 9 11 12 -6 12 -8 0 -12 -4 -9 -9z"/>
<path d="M2369 1525 c-1 -3 -2 -11 -3 -17 -1 -7 -8 -12 -16 -10 -11 3 -11 0 1
-14 13 -16 12 -17 -6 -11 -19 7 -19 6 -2 -7 9 -7 17 -19 17 -27 0 -11 -2 -11
-10 1 -5 8 -10 10 -10 4 0 -6 11 -27 25 -47 22 -34 23 -37 7 -46 -15 -9 -14
-10 5 -8 12 0 19 5 16 11 -4 5 1 7 10 3 11 -4 14 -2 10 8 -3 8 -9 12 -14 9 -5
-3 -9 -1 -9 5 0 5 6 12 13 15 6 3 2 3 -10 0 -31 -7 -29 1 11 44 l34 36 -3 -36
c-3 -30 -1 -36 12 -31 11 4 14 2 9 -5 -4 -7 -14 -12 -22 -12 -8 0 -14 -5 -14
-10 0 -7 6 -7 19 0 28 15 35 29 17 36 -9 3 -16 14 -16 23 0 14 2 14 10 1 13
-21 13 -3 -1 22 -8 14 -8 23 0 31 6 6 11 15 11 21 0 5 -6 2 -13 -8 -12 -16
-14 -16 -26 -2 -15 18 -31 21 -31 5 0 -5 5 -7 12 -3 7 5 9 2 5 -9 -4 -11 -2
-14 9 -10 23 8 17 -6 -19 -43 l-33 -35 0 40 c1 29 5 40 14 36 9 -3 10 0 3 14
-6 10 -7 21 -4 25 3 3 3 6 0 6 -4 0 -8 -2 -8 -5z"/>
<path d="M1460 1513 c0 -6 8 -17 18 -24 16 -13 16 -13 2 6 -8 11 -16 22 -17
24 -2 2 -3 0 -3 -6z"/>
<path d="M473 1498 c-3 -7 -1 -8 5 -4 7 4 12 1 12 -6 0 -10 2 -10 9 1 10 16
18 4 15 -26 0 -12 2 -20 7 -18 4 3 15 -5 23 -17 9 -12 16 -19 16 -14 0 4 -9
19 -19 33 -11 13 -17 31 -14 39 3 8 1 14 -3 15 -5 0 -17 2 -26 4 -10 2 -21 -2
-25 -7z"/>
<path d="M540 1499 c0 -5 5 -7 10 -4 6 3 10 8 10 11 0 2 -4 4 -10 4 -5 0 -10
-5 -10 -11z"/>
<path d="M1434 1499 c-3 -5 -14 -7 -23 -4 -10 3 -24 -1 -31 -10 -9 -11 -9 -15
-1 -15 6 0 16 -10 21 -22 5 -14 9 -17 9 -7 1 8 -4 20 -11 27 -23 23 0 23 26
-1 27 -26 37 -48 11 -27 -9 7 -15 8 -15 2 0 -12 21 -21 37 -15 17 6 -6 43 -26
43 -12 0 -13 2 -2 13 10 10 16 8 30 -10 10 -12 21 -19 25 -16 3 4 6 1 6 -5 0
-7 -9 -21 -19 -31 -11 -11 -16 -23 -13 -27 4 -4 -1 -4 -10 -1 -10 3 -24 0 -32
-8 -19 -19 -30 -19 -23 -1 4 10 1 13 -9 9 -8 -3 -14 -2 -13 3 3 20 -2 32 -15
37 -10 4 -13 1 -9 -9 3 -7 10 -14 17 -14 6 -1 1 -9 -11 -19 -12 -10 -19 -22
-15 -26 4 -5 -1 -5 -10 -2 -10 4 -18 2 -18 -4 0 -6 13 -8 30 -5 17 2 30 0 30
-5 0 -5 5 -9 11 -9 8 0 8 5 -1 15 -7 8 -16 12 -21 9 -10 -6 -12 9 -2 19 3 4
15 0 25 -10 17 -15 19 -15 37 1 12 11 21 14 26 7 3 -6 11 -11 17 -11 6 0 8 3
5 6 -9 10 12 46 23 39 6 -4 7 1 3 11 -4 12 -3 15 5 10 22 -14 12 3 -23 38 -19
19 -37 30 -41 25z"/>
<path d="M1542 1484 c-7 -8 -8 -14 -3 -14 10 0 25 19 20 25 -2 1 -10 -3 -17
-11z"/>
<path d="M1610 1485 c0 -8 2 -15 4 -15 2 0 6 7 10 15 3 8 1 15 -4 15 -6 0 -10
-7 -10 -15z"/>
<path d="M447 1484 c-3 -3 -3 -13 0 -22 5 -11 1 -14 -13 -10 -14 4 -20 0 -21
-13 -1 -11 3 -19 8 -19 6 0 8 4 5 9 -3 5 3 11 14 14 12 3 18 13 17 26 -1 23
-1 23 -10 15z"/>
<path d="M476 1463 c2 -7 -7 -19 -19 -28 -12 -8 -17 -15 -12 -15 12 1 55 36
55 45 0 3 -4 4 -9 1 -5 -4 -11 -3 -14 1 -2 5 -2 2 -1 -4z"/>
<path d="M540 1471 c0 -6 4 -13 10 -16 6 -3 7 1 4 9 -7 18 -14 21 -14 7z"/>
<path d="M1659 1463 c0 -4 -2 -16 -4 -26 -2 -9 1 -15 6 -11 5 3 7 9 4 14 -3 4
0 10 7 12 9 3 9 6 0 12 -7 4 -12 4 -13 -1z"/>
<path d="M1770 1447 c-19 -12 -36 -25 -38 -29 -6 -13 -23 -9 -21 5 3 24 -1 37
-12 37 -8 0 -7 -6 2 -17 12 -15 12 -16 -5 -9 -19 7 -19 6 -1 -14 10 -11 13
-20 7 -20 -6 0 -14 5 -17 10 -8 13 -25 3 -25 -13 0 -7 4 -6 10 3 9 13 14 7 11
-12 0 -4 5 -5 12 -2 7 2 22 -4 32 -16 19 -21 45 -27 45 -9 0 5 -4 8 -9 5 -5
-3 -20 3 -32 14 -13 11 -19 19 -12 20 6 0 15 -4 18 -10 11 -17 34 -11 32 9 0
11 -5 17 -9 15 -5 -3 -5 -10 -2 -16 4 -6 1 -9 -5 -7 -21 7 -15 23 11 36 14 7
31 20 38 28 16 19 13 18 -30 -8z"/>
<path d="M2380 1459 c0 -5 5 -7 10 -4 6 3 10 8 10 11 0 2 -4 4 -10 4 -5 0 -10
-5 -10 -11z"/>
<path d="M1355 1450 c3 -5 8 -10 11 -10 2 0 4 5 4 10 0 6 -5 10 -11 10 -5 0
-7 -4 -4 -10z"/>
<path d="M1730 1449 c0 -5 5 -7 10 -4 6 3 10 8 10 11 0 2 -4 4 -10 4 -5 0 -10
-5 -10 -11z"/>
<path d="M2296 1445 c-8 -9 -18 -16 -21 -15 -17 1 -18 -1 -7 -12 10 -10 16 -7
28 10 8 12 20 20 25 17 5 -4 9 -1 9 4 0 16 -16 13 -34 -4z"/>
<path d="M1380 1436 c0 -8 4 -17 9 -20 5 -4 7 3 4 14 -6 23 -13 26 -13 6z"/>
<path d="M497 1424 c2 -7 11 -10 19 -7 19 7 18 10 -5 16 -13 3 -18 1 -14 -9z"/>
<path d="M394 1410 c20 -31 20 -40 -1 -41 -12 0 -13 -2 -5 -6 7 -3 22 2 32 12
18 16 18 15 14 -25 l-4 -43 22 29 c13 16 26 31 30 32 11 5 10 22 0 22 -5 0
-15 -12 -22 -27 -7 -17 -14 -23 -17 -15 -6 17 25 64 37 57 6 -4 10 -1 10 4 0
16 -16 13 -34 -5 -9 -8 -16 -11 -16 -5 0 6 -5 11 -11 11 -5 0 -7 -4 -4 -10 12
-19 -7 -10 -27 13 l-20 22 16 -25z"/>
<path d="M1787 1423 c-4 -3 -7 -11 -7 -17 0 -6 5 -4 10 4 5 8 10 13 11 10 0
-3 2 -14 4 -25 2 -11 9 -21 14 -23 15 -5 14 -23 -1 -21 -25 3 -38 -1 -38 -12
0 -8 5 -8 15 1 13 11 15 9 12 -9 -6 -37 -24 -47 -47 -26 -11 10 -17 21 -15 25
3 4 -2 11 -11 14 -26 10 15 -50 43 -63 35 -16 40 -14 60 19 9 17 21 30 26 30
4 0 5 -4 2 -10 -3 -5 -1 -10 4 -10 13 0 14 10 3 27 -5 9 -11 9 -23 0 -9 -7
-17 -15 -18 -19 -6 -26 -15 -38 -28 -38 -12 0 -12 2 1 16 9 8 14 19 11 24 -3
5 3 15 12 22 21 15 28 44 13 53 -6 4 -7 -1 -3 -12 6 -16 5 -16 -10 -5 -9 8
-16 17 -15 20 3 28 -10 41 -25 25z"/>
<path d="M2306 1414 c-3 -9 -3 -20 0 -26 3 -5 -4 -20 -16 -33 -19 -20 -21 -27
-10 -40 7 -8 10 -19 6 -22 -4 -4 -12 -1 -17 7 -8 12 -9 10 -4 -7 6 -22 -8 -37
-34 -38 -17 0 -28 -25 -11 -25 6 0 8 5 4 12 -5 8 -2 9 10 5 10 -4 23 1 33 13
9 10 21 16 26 13 6 -3 7 -1 3 5 -3 6 4 18 16 26 15 11 18 16 8 16 -9 1 -4 7
10 15 14 8 21 15 15 15 -5 1 -1 6 10 11 18 8 18 8 -4 6 -13 -1 -26 4 -28 11
-3 8 2 10 14 6 13 -4 14 -3 5 4 -8 5 -13 12 -13 16 4 29 -13 37 -23 10z m24
-8 c0 -3 -4 -8 -10 -11 -5 -3 -10 -1 -10 4 0 6 5 11 10 11 6 0 10 -2 10 -4z
m0 -57 c0 -6 -4 -7 -10 -4 -9 6 -14 -8 -11 -27 1 -11 -17 -10 -23 0 -7 12 24
53 35 47 5 -4 9 -11 9 -16z"/>
<path d="M2405 1420 c-3 -5 -1 -10 4 -10 6 0 11 5 11 10 0 6 -2 10 -4 10 -3 0
-8 -4 -11 -10z"/>
<path d="M1410 1409 c0 -5 5 -7 10 -4 6 3 10 8 10 11 0 2 -4 4 -10 4 -5 0 -10
-5 -10 -11z"/>
<path d="M361 1396 c-6 -7 -8 -21 -5 -30 4 -11 -1 -22 -12 -31 -18 -14 -18
-15 4 -30 20 -15 21 -18 7 -38 -8 -12 -15 -26 -15 -32 1 -5 7 2 15 17 11 20
20 25 37 21 18 -4 17 -1 -8 15 -18 11 -35 25 -38 31 -10 16 10 13 23 -3 14
-17 51 -28 51 -15 0 5 -9 9 -19 9 -24 0 -33 14 -36 51 -2 16 2 26 9 25 6 -2 8
-1 3 1 -4 3 -5 9 -1 14 8 14 -2 11 -15 -5z"/>
<path d="M1325 1400 c-3 -5 -1 -10 4 -10 6 0 11 5 11 10 0 6 -2 10 -4 10 -3 0
-8 -4 -11 -10z"/>
<path d="M2230 1398 c0 -6 3 -8 7 -5 3 4 17 0 30 -8 27 -18 31 -9 6 11 -22 17
-43 18 -43 2z"/>
<path d="M1780 1380 c0 -5 5 -10 11 -10 5 0 7 5 4 10 -3 6 -8 10 -11 10 -2 0
-4 -4 -4 -10z"/>
<path d="M2177 1384 c-3 -5 1 -15 9 -22 16 -14 18 -5 5 17 -5 7 -11 9 -14 5z"/>
<path d="M2213 1375 c11 -7 25 -11 33 -8 16 6 19 -13 4 -20 -6 -3 -5 -4 2 -3
19 4 16 31 -4 31 -9 0 -20 4 -24 8 -4 4 -12 7 -18 7 -6 0 -3 -7 7 -15z"/>
<path d="M784 1365 c-10 -8 -14 -15 -8 -15 6 0 17 7 24 15 16 19 9 19 -16 0z"/>
<path d="M322 1354 c-14 -16 -5 -18 17 -5 7 5 9 11 5 14 -5 3 -15 -1 -22 -9z"/>
<path d="M1416 1355 c-9 -7 -13 -16 -8 -19 6 -3 12 1 16 9 3 8 12 12 21 9 8
-3 15 -4 15 -1 0 12 -28 14 -44 2z"/>
<path d="M1693 1355 c0 -8 4 -15 9 -15 4 0 8 7 8 15 0 8 -4 15 -8 15 -5 0 -9
-7 -9 -15z"/>
<path d="M2210 1350 c0 -5 5 -10 11 -10 5 0 7 5 4 10 -3 6 -8 10 -11 10 -2 0
-4 -4 -4 -10z"/>
<path d="M380 1342 c0 -14 28 -23 36 -11 3 6 3 13 0 16 -3 4 -6 1 -6 -7 0 -10
-3 -10 -15 0 -9 7 -15 8 -15 2z"/>
<path d="M1293 1332 c0 -9 7 -22 16 -28 12 -9 18 -8 28 5 15 20 16 31 3 31 -5
0 -9 -5 -7 -11 1 -6 -4 -14 -12 -17 -8 -2 -11 0 -8 6 4 5 1 15 -6 21 -11 8
-14 7 -14 -7z"/>
<path d="M774 1328 c-4 -6 0 -16 9 -23 22 -16 22 -26 0 -19 -17 5 -17 5 0 -9
20 -17 23 -31 4 -24 -8 3 -14 -1 -14 -9 0 -17 9 -18 25 -2 9 9 12 9 12 0 0 -7
5 -12 11 -12 6 0 4 9 -5 21 -8 12 -12 27 -9 35 3 8 -2 17 -11 20 -20 8 -21 24
-2 24 8 0 18 -9 21 -20 4 -11 11 -18 16 -15 5 4 9 -1 9 -10 0 -10 -4 -13 -12
-8 -7 4 -5 -5 4 -19 20 -31 6 -51 -29 -42 -11 3 -24 1 -27 -4 -4 -6 3 -8 16
-5 14 3 18 1 12 -4 -9 -6 -7 -12 4 -23 14 -13 15 -12 9 3 -5 14 -2 16 17 11
19 -4 27 0 36 18 10 21 10 21 -3 6 -8 -10 -20 -18 -26 -18 -8 0 -7 5 3 16 9 8
14 20 11 25 -4 5 -1 9 4 9 6 0 11 5 11 11 0 8 -5 7 -16 -2 -13 -11 -14 -9 -9
13 5 19 2 29 -12 37 -10 6 -13 11 -8 11 14 0 -17 20 -32 20 -6 0 -15 -5 -19
-12z"/>
<path d="M1426 1323 c-6 -14 -5 -15 5 -6 7 7 10 15 7 18 -3 3 -9 -2 -12 -12z"/>
<path d="M1760 1331 c0 -10 19 -25 25 -20 1 2 -3 10 -11 17 -8 7 -14 8 -14 3z"/>
<path d="M1900 1325 c8 -11 20 -23 25 -27 6 -5 5 -8 -2 -8 -7 0 -13 -5 -13
-12 0 -6 9 -3 20 7 11 10 20 23 19 29 0 6 -3 5 -6 -2 -4 -10 -12 -8 -31 10
-21 18 -23 19 -12 3z"/>
<path d="M2187 1304 c17 -34 17 -36 -2 -50 -10 -8 -14 -14 -8 -14 25 0 35 28
22 65 -7 19 -17 35 -21 35 -4 0 0 -16 9 -36z"/>
<path d="M292 1309 c-7 -11 -10 -24 -7 -29 4 -6 2 -10 -3 -10 -5 0 -14 -11
-20 -24 -9 -20 -8 -27 5 -38 9 -7 18 -12 20 -10 1 1 6 2 11 2 4 0 0 -5 -8 -10
-8 -5 -10 -10 -4 -10 7 0 19 11 28 25 20 30 21 46 2 19 -14 -18 -16 -18 -32
-2 -16 15 -16 18 0 33 9 9 14 21 10 26 -3 6 0 17 7 25 6 8 10 16 8 19 -3 2
-10 -5 -17 -16z"/>
<path d="M1367 1311 c4 -9 3 -13 -2 -9 -4 4 -14 0 -20 -9 -11 -15 -17 -15 -40
-5 -15 7 -29 11 -32 9 -2 -2 9 -10 25 -16 25 -11 34 -9 61 7 17 10 28 22 24
25 -3 4 -1 7 5 7 5 0 13 -5 15 -10 3 -6 4 -5 3 2 -1 7 -12 13 -23 14 -16 1
-20 -3 -16 -15z"/>
<path d="M1710 1324 c0 -6 7 -19 16 -30 14 -18 14 -18 3 6 -14 31 -19 36 -19
24z"/>
<path d="M2207 1313 c3 -7 9 -13 15 -13 5 0 6 5 3 10 -3 6 -2 10 4 10 5 0 11
-5 13 -12 3 -8 6 -7 10 3 5 12 -1 15 -22 15 -19 0 -26 -4 -23 -13z"/>
<path d="M2340 1320 c0 -5 5 -10 10 -10 6 0 10 5 10 10 0 6 -4 10 -10 10 -5 0
-10 -4 -10 -10z"/>
<path d="M1885 1300 c-3 -5 -1 -10 4 -10 6 0 11 5 11 10 0 6 -2 10 -4 10 -3 0
-8 -4 -11 -10z"/>
<path d="M310 1289 c0 -5 5 -7 10 -4 17 10 11 -4 -10 -27 -11 -12 -18 -24 -15
-26 3 -3 16 8 30 24 18 20 21 30 12 36 -17 11 -27 10 -27 -3z"/>
<path d="M1833 1274 c-12 -13 -22 -27 -23 -29 0 -3 0 -8 -1 -12 0 -5 -5 1 -10
12 -8 16 -8 15 -4 -8 4 -21 2 -27 -6 -21 -8 4 -9 3 -5 -4 10 -17 12 -16 36 24
21 34 23 34 42 18 17 -16 18 -16 12 -1 -7 18 11 24 19 7 3 -6 4 -5 3 2 -2 7
-13 12 -25 11 -23 -3 -29 12 -8 20 6 3 8 6 2 6 -5 0 -20 -11 -32 -25z"/>
<path d="M1374 1275 c-4 -8 -10 -12 -15 -9 -18 11 -21 -27 -4 -40 13 -9 15
-15 7 -20 -7 -4 -12 -12 -12 -19 0 -6 7 -2 16 9 15 19 16 19 9 -1 -5 -16 -4
-17 6 -8 10 10 8 17 -9 36 -23 24 -30 43 -12 32 6 -3 13 1 16 9 3 9 10 16 15
16 6 0 5 -9 -2 -21 -8 -16 -8 -24 1 -33 8 -8 10 -7 5 7 -4 9 -3 17 2 17 5 0 9
9 10 20 2 23 -25 27 -33 5z"/>
<path d="M1951 1274 c0 -11 3 -14 6 -6 3 7 2 16 -1 19 -3 4 -6 -2 -5 -13z"/>
<path d="M2170 1280 c0 -5 5 -10 11 -10 5 0 7 5 4 10 -3 6 -8 10 -11 10 -2 0
-4 -4 -4 -10z"/>
<path d="M2220 1282 c0 -5 7 -9 15 -9 8 0 15 4 15 9 0 4 -7 8 -15 8 -8 0 -15
-4 -15 -8z"/>
<path d="M1268 1273 c6 -2 10 -8 8 -12 -3 -4 1 -8 9 -8 8 0 15 4 15 8 0 7 -26
20 -38 18 -4 0 -1 -3 6 -6z"/>
<path d="M1750 1271 c0 -5 7 -11 15 -15 8 -3 15 -1 15 3 0 5 -7 11 -15 15 -8
3 -15 1 -15 -3z"/>
<path d="M1921 1261 c-11 -7 -11 -13 3 -32 9 -13 16 -18 16 -12 0 7 -5 15 -11
19 -8 4 -7 9 2 15 7 4 11 10 8 13 -2 3 -11 1 -18 -3z"/>
<path d="M366 1245 c-3 -8 -1 -15 3 -15 5 0 11 7 15 15 3 8 1 15 -3 15 -5 0
-11 -7 -15 -15z"/>
<path d="M1310 1248 c1 -20 27 -50 34 -40 3 6 -1 13 -10 16 -9 4 -14 13 -10
21 3 8 1 15 -4 15 -6 0 -10 -6 -10 -12z"/>
<path d="M1250 1241 c0 -6 5 -11 10 -11 17 0 25 -3 39 -17 21 -22 6 -26 -28
-9 -19 10 -32 12 -36 6 -4 -6 -3 -9 2 -8 14 4 53 -13 53 -23 0 -6 -4 -7 -10
-4 -5 3 -10 1 -10 -4 0 -6 6 -11 13 -11 8 0 7 -4 -3 -10 -26 -17 1 -11 31 7
16 10 29 22 29 27 0 5 -8 2 -18 -7 -26 -24 -39 -21 -17 3 17 19 17 21 0 40
-10 11 -20 18 -23 15 -3 -3 -11 0 -19 6 -9 9 -13 8 -13 0z"/>
<path d="M1757 1239 c7 -7 15 -10 18 -7 3 3 -2 9 -12 12 -14 6 -15 5 -6 -5z"/>
<path d="M1828 1219 c-10 -16 -15 -29 -13 -29 2 0 10 -3 19 -6 9 -3 16 -1 16
6 0 6 -4 8 -10 5 -5 -3 -10 -1 -10 4 0 6 5 11 11 11 5 0 8 4 5 9 -4 5 -1 11 6
13 7 3 8 7 2 10 -5 4 -17 -7 -26 -23z"/>
<path d="M1890 1231 c0 -6 -5 -10 -12 -8 -6 1 -13 -6 -14 -16 -1 -12 0 -13 3
-2 2 8 8 13 12 11 4 -3 13 -1 20 3 9 6 10 11 2 15 -6 4 -11 2 -11 -3z"/>
<path d="M2180 1222 c0 -5 7 -9 15 -9 8 0 12 4 9 9 -3 4 -9 8 -15 8 -5 0 -9
-4 -9 -8z"/>
<path d="M336 1213 c-10 -11 -7 -21 10 -27 15 -6 15 -4 3 11 -12 15 -12 16 3
10 10 -3 19 -3 22 1 6 9 -29 13 -38 5z"/>
<path d="M1951 1204 c0 -11 3 -14 6 -6 3 7 2 16 -1 19 -3 4 -6 -2 -5 -13z"/>
<path d="M246 1195 c4 -8 11 -15 16 -15 6 0 5 6 -2 15 -7 8 -14 15 -16 15 -2
0 -1 -7 2 -15z"/>
<path d="M1877 1185 c-34 -30 -26 -33 10 -5 14 11 29 17 34 14 15 -9 10 -22
-7 -20 -9 0 -18 -5 -20 -12 -1 -7 0 -8 3 -2 2 5 9 10 14 10 6 0 7 -6 3 -12 -6
-10 -4 -10 7 0 20 18 33 15 18 -5 -13 -16 -12 -17 4 -4 17 13 17 15 -4 38 -27
28 -27 28 -62 -2z"/>
<path d="M770 1183 c0 -6 7 -14 16 -17 13 -5 14 -9 4 -21 -7 -9 -11 -17 -9
-20 3 -2 10 4 16 14 10 15 8 22 -8 37 -10 9 -19 12 -19 7z"/>
<path d="M865 1182 c-13 -9 -18 -35 -5 -27 5 3 10 1 10 -4 0 -6 5 -11 12 -11
9 0 9 3 0 12 -7 7 -12 17 -12 23 1 5 10 -1 20 -14 22 -26 27 -16 6 12 -15 19
-17 20 -31 9z"/>
<path d="M1216 1181 c-4 -6 -3 -11 2 -11 6 0 9 -8 8 -17 -1 -20 26 -25 30 -5
1 7 0 8 -3 2 -7 -15 -26 -12 -20 3 7 19 -8 43 -17 28z"/>
<path d="M1245 1180 c3 -5 8 -10 11 -10 2 0 4 5 4 10 0 6 -5 10 -11 10 -5 0
-7 -4 -4 -10z"/>
<path d="M233 1159 c-2 -23 3 -25 10 -4 4 8 3 16 -1 19 -4 3 -9 -4 -9 -15z"/>
<path d="M310 1168 c0 -6 3 -8 7 -5 3 4 12 2 20 -4 8 -7 13 -8 13 -1 0 5 -7
13 -16 16 -22 8 -24 8 -24 -6z"/>
<path d="M826 1165 c-3 -8 -1 -15 4 -15 6 0 10 7 10 15 0 8 -2 15 -4 15 -2 0
-6 -7 -10 -15z"/>
<path d="M256 1155 c-3 -8 -1 -15 3 -15 5 0 11 7 15 15 3 8 1 15 -3 15 -5 0
-11 -7 -15 -15z"/>
<path d="M282 1145 c-8 -17 -17 -23 -29 -18 -10 3 -2 -8 17 -25 39 -34 33 -44
-7 -12 -29 22 -43 25 -43 9 0 -5 4 -8 8 -5 15 9 52 -24 45 -40 -6 -16 12 -34
32 -34 6 1 2 5 -7 11 -10 5 -18 15 -18 20 0 6 4 8 9 5 20 -12 21 27 1 41 -19
13 -19 15 -4 39 9 13 15 27 12 29 -3 3 -10 -6 -16 -20z"/>
<path d="M1342 1161 c-11 -6 -10 -10 4 -15 9 -3 19 -4 22 -1 3 3 -1 5 -9 5
-11 0 -11 2 1 10 8 5 11 10 5 10 -5 0 -16 -4 -23 -9z"/>
<path d="M303 1131 c-10 -16 -9 -20 4 -25 21 -9 35 6 27 27 -8 22 -16 21 -31
-2z m27 -11 c0 -5 -4 -10 -10 -10 -5 0 -10 5 -10 10 0 6 5 10 10 10 6 0 10 -4
10 -10z"/>
<path d="M1196 1143 c-6 -6 31 -43 44 -43 11 0 46 29 35 30 -6 0 -17 -6 -24
-12 -10 -11 -16 -9 -30 9 -10 12 -21 19 -25 16z"/>
<path d="M801 1118 c-14 -23 -14 -23 8 -4 22 20 25 26 13 26 -4 0 -13 -10 -21
-22z"/>
<path d="M853 1129 c18 -10 18 -12 1 -30 -16 -18 -16 -20 0 -38 17 -18 17 -20
-1 -30 -10 -6 -13 -11 -7 -11 16 0 33 21 28 35 -8 19 29 14 54 -8 22 -20 23
-20 40 -2 16 18 16 18 0 6 -16 -12 -22 -9 -48 19 -17 18 -33 30 -37 26 -3 -3
0 -6 7 -6 19 0 3 -13 -20 -17 -25 -4 -25 2 0 29 l19 21 31 -33 c24 -26 34 -30
43 -21 9 10 8 11 -8 5 -11 -4 -17 -4 -13 1 4 4 -3 16 -15 27 -18 16 -19 19 -4
14 10 -3 15 -2 12 4 -3 5 -19 8 -36 6 -16 -2 -32 0 -35 5 -3 5 -11 9 -17 9 -7
0 -4 -5 6 -11z"/>
<path d="M1282 1111 c-16 -16 -28 -32 -24 -35 11 -12 -9 -6 -33 10 -18 12 -27
13 -37 4 -7 -6 -22 -17 -33 -26 -17 -13 -16 -13 12 1 30 14 33 14 43 -3 11
-16 11 -16 6 1 -4 12 -2 17 6 14 7 -2 12 -15 11 -28 -1 -15 0 -17 3 -6 3 9 10
15 15 12 5 -4 9 -2 9 2 0 14 52 73 63 73 6 0 3 -8 -6 -18 -10 -10 -17 -25 -16
-33 0 -8 4 -4 9 8 6 16 15 21 27 17 15 -5 16 -4 3 5 -13 9 -13 11 0 11 13 0
13 1 0 10 -21 14 -24 13 -58 -19z"/>
<path d="M822 1108 c-15 -15 -16 -35 -2 -43 5 -3 7 0 4 8 -3 8 2 22 11 31 9 9
13 16 8 16 -5 0 -14 -5 -21 -12z"/>
<path d="M224 1069 c-5 -8 -3 -9 6 -4 7 4 16 2 22 -6 8 -12 9 -12 6 0 -6 20
-24 25 -34 10z"/>
<path d="M1276 1064 c-8 -20 -8 -24 2 -24 4 0 8 9 9 20 2 24 -3 26 -11 4z"/>
<path d="M1310 1060 c-9 -6 -10 -10 -3 -10 6 0 15 5 18 10 8 12 4 12 -15 0z"/>
<path d="M310 1049 c0 -5 5 -7 10 -4 6 3 10 8 10 11 0 2 -4 4 -10 4 -5 0 -10
-5 -10 -11z"/>
<path d="M1160 1044 c-14 -8 -18 -14 -10 -14 8 1 24 7 34 15 24 19 10 18 -24
-1z"/>
<path d="M237 1039 c7 -7 15 -10 18 -7 3 3 -2 9 -12 12 -14 6 -15 5 -6 -5z"/>
<path d="M884 1033 c-12 -27 -12 -53 -2 -53 6 0 8 6 5 14 -3 7 1 23 9 35 8 11
11 21 6 21 -6 0 -13 -8 -18 -17z"/>
<path d="M980 1030 c-12 -7 -10 -9 7 -7 12 0 19 5 17 9 -6 10 -6 10 -24 -2z"/>
<path d="M1187 1033 c-4 -3 -7 -11 -7 -17 0 -6 4 -4 10 4 11 18 23 8 14 -14
-3 -9 -11 -13 -16 -10 -6 4 -5 -3 1 -15 9 -15 9 -26 1 -42 -12 -22 -8 -35 9
-25 6 4 7 14 4 24 -6 15 -5 15 10 3 21 -17 22 -5 2 15 -23 24 -18 39 6 18 21
-19 22 -19 33 0 6 11 19 28 29 38 13 13 14 18 3 18 -7 0 -19 -13 -26 -30 -7
-16 -16 -30 -21 -30 -13 0 -11 14 6 36 8 10 15 23 15 28 0 6 -6 2 -13 -8 -12
-16 -14 -16 -26 -2 -15 17 -24 20 -34 9z m43 -33 c0 -5 -4 -10 -10 -10 -5 0
-10 5 -10 10 0 6 5 10 10 10 6 0 10 -4 10 -10z"/>
<path d="M906 1014 c-5 -14 -4 -15 8 -5 11 9 14 7 14 -14 0 -24 -12 -34 -21
-17 -2 4 -2 1 0 -7 2 -8 -2 -11 -12 -7 -22 8 -18 -2 6 -15 12 -6 19 -7 17 -2
-3 4 8 18 23 31 34 28 38 16 7 -18 -18 -20 -19 -23 -4 -17 12 5 16 3 13 -5 -2
-7 -12 -12 -22 -10 -14 3 -15 1 -4 -11 8 -8 16 -11 17 -6 2 5 9 6 14 3 6 -4 8
-3 5 3 -3 5 1 19 9 31 14 20 17 21 38 7 12 -8 26 -12 29 -8 4 3 7 2 7 -4 0
-19 -14 -23 -36 -8 -20 13 -23 12 -28 -1 -8 -21 -8 -24 5 -24 5 0 7 5 4 10 -3
6 -1 10 4 10 6 0 11 -5 11 -12 0 -6 3 -8 7 -4 4 3 13 -4 21 -16 7 -13 11 -15
8 -6 -3 9 4 28 15 42 20 26 18 47 -4 45 -9 0 -9 -2 1 -6 22 -9 13 -23 -13 -19
-36 7 -44 14 -38 36 3 12 0 20 -6 20 -7 0 -10 -4 -7 -9 3 -5 -3 -20 -14 -32
-22 -27 -27 -20 -8 11 14 22 3 39 -14 22 -17 -17 -33 -15 -19 2 9 11 8 15 -5
20 -21 8 -21 8 -28 -10z"/>
<path d="M1107 1013 c-10 -9 -9 -23 1 -23 5 0 9 7 9 15 0 17 -1 18 -10 8z"/>
<path d="M1130 1009 c0 -6 10 -19 23 -29 18 -15 20 -21 10 -31 -15 -15 -17
-39 -5 -39 5 0 9 6 9 13 0 6 4 20 8 29 4 11 0 23 -14 34 -11 10 -18 21 -15 26
3 4 0 8 -5 8 -6 0 -11 -5 -11 -11z"/>
<path d="M1030 1000 c8 -5 20 -10 25 -10 6 0 3 5 -5 10 -8 5 -19 10 -25 10 -5
0 -3 -5 5 -10z"/>
<path d="M1080 984 c8 -10 15 -20 16 -22 1 -2 4 1 7 5 3 5 -4 15 -16 23 -21
12 -21 12 -7 -6z"/>
<path d="M1020 980 c0 -5 5 -10 11 -10 5 0 7 5 4 10 -3 6 -8 10 -11 10 -2 0
-4 -4 -4 -10z"/>
<path d="M1130 973 c16 -8 12 -26 -5 -19 -8 3 -15 1 -15 -5 0 -6 8 -9 18 -7
20 4 23 30 4 34 -7 1 -8 0 -2 -3z"/>
<path d="M1083 935 c-6 -7 -9 -16 -6 -19 4 -3 1 -6 -5 -6 -7 0 -12 -5 -12 -11
0 -5 4 -8 9 -5 5 3 11 -3 14 -14 5 -19 47 -25 47 -7 0 5 -8 6 -19 2 -22 -7
-34 23 -19 49 12 22 7 28 -9 11z"/>
<path d="M1105 912 c-3 -8 -3 -17 0 -20 3 -3 5 0 5 6 0 7 7 12 15 12 8 0 15 4
15 8 0 15 -29 9 -35 -6z"/>
<path d="M977 888 c2 -5 14 -6 25 -2 14 4 18 2 14 -5 -4 -6 -5 -11 -2 -11 2 0
13 -3 23 -7 17 -6 17 -6 -1 13 -19 18 -70 29 -59 12z"/>
<path d="M1130 896 c0 -2 6 -9 14 -15 10 -9 17 -7 27 6 13 16 12 17 -3 4 -12
-9 -18 -10 -18 -2 0 6 -4 11 -10 11 -5 0 -10 -2 -10 -4z"/>
</g>
</svg>
