<?xml version="1.0" standalone="no"?>
<!DOCTYPE svg PUBLIC "-//W3C//DTD SVG 20010904//EN"
 "http://www.w3.org/TR/2001/REC-SVG-20010904/DTD/svg10.dtd">
<svg version="1.0" xmlns="http://www.w3.org/2000/svg"
 width="73.000000pt" height="73.000000pt" viewBox="0 0 73.000000 73.000000"
 preserveAspectRatio="xMidYMid meet">
<metadata>
Created by potrace 1.11, written by Peter Selinger 2001-2013
</metadata>
<g transform="translate(0.000000,73.000000) scale(0.100000,-0.100000)"
fill="#000000" stroke="none">
<path d="M140 375 c0 -124 3 -225 7 -225 4 0 38 30 75 67 37 37 69 65 72 62 2
-2 18 -32 35 -66 17 -35 35 -63 39 -63 5 0 23 32 42 70 l34 70 73 -72 73 -72
0 227 0 227 -225 0 -225 0 0 -225z m315 75 c47 47 85 81 85 77 0 -4 -39 -84
-86 -179 l-86 -171 -88 174 c-49 96 -89 178 -90 184 0 5 40 -31 90 -80 l90
-90 85 85z"/>
</g>
</svg>
