<?xml version="1.0" standalone="no"?>
<!DOCTYPE svg PUBLIC "-//W3C//DTD SVG 20010904//EN"
 "http://www.w3.org/TR/2001/REC-SVG-20010904/DTD/svg10.dtd">
<svg version="1.0" xmlns="http://www.w3.org/2000/svg"
 width="512.000000pt" height="512.000000pt" viewBox="0 0 512.000000 512.000000"
 preserveAspectRatio="xMidYMid meet">
<metadata>
Created by potrace 1.11, written by Peter Selinger 2001-2013
</metadata>
<g transform="translate(0.000000,512.000000) scale(0.100000,-0.100000)"
fill="#000000" stroke="none">
<path d="M231 2553 l0 -2203 2080 1 2081 0 -31 29 c-17 17 -36 30 -43 30 -6 0
-8 3 -5 7 4 4 -6 20 -23 37 -16 17 -53 56 -82 86 -29 30 -56 54 -60 53 -5 -2
-7 1 -5 5 4 15 -112 134 -125 126 -7 -5 -8 -3 -4 5 5 8 -14 34 -52 72 -33 32
-58 59 -56 59 3 0 -14 19 -38 43 -24 24 -78 81 -122 127 -43 47 -82 84 -87 83
-5 -2 -8 1 -6 5 2 8 -40 57 -118 137 -22 22 -61 64 -87 92 -26 28 -48 50 -50
48 -2 -2 -11 7 -20 20 l-18 23 367 361 366 360 -91 862 c-50 474 -94 865 -99
869 -4 4 -411 103 -903 219 l-894 212 -56 -61 c-30 -33 -194 -208 -364 -388
l-309 -327 -68 70 c-37 38 -97 102 -134 140 -36 39 -71 69 -76 67 -6 -1 -8 2
-4 8 7 11 -17 40 -34 40 -6 0 -11 4 -11 10 0 5 -12 22 -27 38 -16 16 -59 62
-98 103 -38 41 -73 73 -78 71 -5 -1 -6 1 -3 6 7 12 -38 54 -49 45 -4 -5 -5 -3
-2 3 3 5 -33 51 -81 101 -48 50 -132 139 -187 198 -55 59 -144 153 -197 209
l-97 101 0 -2202z m111 2034 c6 3 8 1 5 -4 -8 -13 47 -75 58 -65 3 4 5 2 3 -4
-4 -13 78 -104 94 -104 6 0 9 -3 6 -6 -8 -8 42 -55 52 -49 4 2 7 -3 6 -13 0
-9 5 -16 12 -14 6 1 11 -4 10 -10 -2 -7 4 -11 12 -10 8 2 12 0 7 -4 -4 -4 6
-21 22 -38 16 -17 67 -71 113 -120 45 -49 120 -128 166 -175 45 -47 82 -89 82
-94 0 -4 5 -5 10 -2 6 3 10 2 10 -3 0 -16 66 -83 74 -75 4 5 6 1 4 -7 -2 -8 3
-14 9 -13 7 2 12 -1 10 -6 -4 -15 166 -190 177 -184 6 3 8 2 3 -2 -4 -5 7 -23
24 -41 l32 -33 -87 -94 -87 -95 75 -862 c41 -474 76 -863 78 -864 2 -2 407
-92 902 -200 l898 -198 102 101 c94 94 130 119 123 89 -1 -7 6 -12 15 -12 10
1 15 -3 12 -8 -3 -5 21 -36 54 -69 32 -32 57 -59 55 -59 -2 0 8 -11 23 -25 14
-13 31 -22 37 -18 6 3 7 1 3 -6 -5 -7 4 -23 21 -40 25 -25 192 -202 288 -306
20 -22 41 -39 46 -38 5 2 8 -3 6 -10 -1 -6 4 -11 11 -9 8 1 11 -2 8 -7 -4 -5
5 -18 19 -29 14 -11 25 -25 25 -30 0 -6 9 -14 20 -17 11 -3 20 -11 20 -16 0
-16 27 -39 35 -31 5 4 5 2 2 -4 -7 -12 72 -91 86 -86 5 1 6 -2 3 -7 -3 -5 29
-44 72 -87 l77 -79 -1998 1 c-1099 1 -2000 4 -2003 7 -4 3 -8 4124 -4 4230 0
5 12 -5 26 -22 14 -17 31 -28 36 -24z"/>
</g>
</svg>
